# xmcd
#
# Track frame offsets: 
#        150
#        14047
#        27285
#        39788
#        52095
#        64541
#        76033
#        85697
#        103207
#        115299
#        134342
#        143985
#        158426
#        172509
#        185439
#        199773
#        207895
#        220657
#        229784
#        240863
#        250038
#
# Disc length: 3532 seconds
#
# Revision: 1
# Processed by: cddbd v1.5.2PL0 Copyright (c) Steve Scherf et al.
# Submitted via: ExactAudioCopy v1.1
#
DISCID=080dca15
DTITLE=Bobbie Gentry - Ode To Billy Joe and Bobbie Gentry and Glenn Campbe
DTITLE=ll
DYEAR=1967
DGENRE=Pop
TTITLE0=Mississippi Delta (stereo)
TTITLE1=I Saw An Angel Die (stereo)
TTITLE2=Chickasaw County Child (stereo)
TTITLE3=Sunday Best (stereo)
TTITLE4=Niki Hoeky (stereo)
TTITLE5=Papa, Won't You Let Me Go To Town With You (stereo)
TTITLE6=Bugs (stereo)
TTITLE7=Hurry, Tuesday Child (stereo)
TTITLE8=Lazy Willie (stereo)
TTITLE9=Ode to Billy Joe (stereo)
TTITLE10=Bobbie Gentry and Glen Campbell - Less Of Me (stereo)
TTITLE11=Bobbie Gentry and Glen Campbell - Little Green Apples (stereo)
TTITLE12=Bobbie Gentry and Glen Campbell - Gentle On My Mind (stereo)
TTITLE13=Bobbie Gentry and Glen Campbell - Heart To Heart Talk (stereo)
TTITLE14=Bobbie Gentry and Glen Campbell - My Elusive Dreams (stereo)
TTITLE15=Bobbie Gentry and Glen Campbell - (It's Only Your) Imagination 
TTITLE15=(stereo)
TTITLE16=Bobbie Gentry and Glen Campbell - Morning Glory (stereo)
TTITLE17=Bobbie Gentry and Glen Campbell - Terrible Tangled Web (stereo)
TTITLE18=Bobbie Gentry and Glen Campbell - Sunday Mornin' (stereo)
TTITLE19=Bobbie Gentry and Glen Campbell - Let It Be Me (stereo)
TTITLE20=Bobbie Gentry and Glen Campbell - Scarborough Fair - Canticle (
TTITLE20=stereo)
EXTD=2on1.  The Title says "The Hits Albums" but the 2 original Albums
EXTD=arre "Ode To Billy Joe" c.67 and "Bobbie Gentry and Glenn Campbell" 
EXTD=c.68 DISKY HA 860502 c.1995 made in the Netherlands.
EXTT0=
EXTT1=
EXTT2=
EXTT3=
EXTT4=
EXTT5=
EXTT6=
EXTT7=
EXTT8=
EXTT9=
EXTT10=
EXTT11=
EXTT12=
EXTT13=
EXTT14=
EXTT15=
EXTT16=
EXTT17=
EXTT18=
EXTT19=
EXTT20=
PLAYORDER=
